<?xml version="1.0" standalone="no"?>
<!DOCTYPE svg PUBLIC "-//W3C//DTD SVG 20010904//EN"
 "http://www.w3.org/TR/2001/REC-SVG-20010904/DTD/svg10.dtd">
<svg version="1.0" xmlns="http://www.w3.org/2000/svg"
 width="512.000000pt" height="512.000000pt" viewBox="0 0 512.000000 512.000000"
 preserveAspectRatio="xMidYMid meet">
<metadata>
Created by potrace 1.14, written by Peter Selinger 2001-2017
</metadata>
<g transform="translate(0.000000,512.000000) scale(0.100000,-0.100000)"
fill="#000000" stroke="none">
<path d="M1652 4198 l3 -183 55 -5 c31 -3 68 -13 84 -23 56 -37 56 -33 56
-691 0 -405 4 -623 11 -658 25 -119 118 -246 229 -311 84 -49 149 -59 365 -55
l195 3 0 -571 c0 -341 4 -593 10 -625 27 -142 151 -297 294 -365 67 -32 89
-37 172 -42 l94 -5 0 180 0 180 -51 5 c-56 6 -93 28 -126 78 l-23 33 0 1379
c0 1502 -3 1426 56 1465 16 10 53 20 84 23 l55 5 3 183 2 182 -68 0 c-137 0
-246 -46 -349 -146 -72 -71 -128 -175 -143 -270 -6 -33 -10 -318 -10 -659 0
-666 3 -632 -66 -661 -40 -17 -231 -19 -287 -3 -26 7 -44 21 -57 42 -19 31
-20 55 -20 627 0 337 -4 621 -10 654 -15 96 -70 199 -144 271 -101 99 -215
145 -358 145 l-58 0 2 -182z"/>
</g>
</svg>
